<?xml version="1.0" standalone="no"?>
<!DOCTYPE svg PUBLIC "-//W3C//DTD SVG 20010904//EN"
 "http://www.w3.org/TR/2001/REC-SVG-20010904/DTD/svg10.dtd">
<svg version="1.0" xmlns="http://www.w3.org/2000/svg"
 width="300.000000pt" height="197.000000pt" viewBox="0 0 300.000000 197.000000"
 preserveAspectRatio="xMidYMid meet">
<metadata>
Created by potrace 1.10, written by Peter Selinger 2001-2011
</metadata>
<g transform="translate(0.000000,197.000000) scale(0.100000,-0.100000)"
fill="#000000" stroke="none">
<path d="M157 1873 c345 -261 332 -253 377 -253 26 0 36 3 28 9 -7 4 -23 6
-36 4 -15 -3 -41 10 -85 44 -34 26 -75 57 -91 68 -65 47 -176 133 -192 148 -9
9 -19 17 -22 17 -6 0 -36 24 -61 48 -8 6 -21 12 -30 12 -9 0 42 -44 112 -97z"/>
<path d="M769 1930 c17 -25 43 -58 57 -75 14 -16 9 -5 -12 25 -20 30 -46 64
-57 75 -11 11 -6 0 12 -25z"/>
<path d="M1078 1925 c45 -112 55 -136 58 -132 5 5 -56 160 -68 172 -5 6 -1
-12 10 -40z"/>
<path d="M2180 1850 c-44 -66 -78 -120 -75 -120 2 0 41 54 85 120 44 66 78
120 75 120 -2 0 -41 -54 -85 -120z"/>
<path d="M2913 1942 c-17 -15 -53 -43 -78 -62 -26 -19 -64 -48 -85 -65 -21
-16 -69 -54 -106 -82 -38 -29 -78 -61 -89 -72 -11 -10 -27 -21 -35 -23 -8 -2
-10 -7 -4 -10 5 -4 110 72 233 168 122 96 217 174 209 174 -7 0 -27 -13 -45
-28z"/>
<path d="M15 1942 c24 -24 186 -141 165 -119 -8 8 -53 43 -100 77 -47 34 -76
53 -65 42z"/>
<path d="M430 1938 c0 -4 18 -8 41 -8 23 0 38 4 34 10 -7 11 -75 10 -75 -2z"/>
<path d="M2960 1911 c-103 -84 -413 -311 -426 -311 -10 0 -14 -11 -12 -42 1
-42 1 -42 5 -7 3 25 11 39 26 46 28 13 418 305 436 327 20 24 10 20 -29 -13z"/>
<path d="M0 1921 c0 -4 17 -20 38 -34 51 -36 146 -103 226 -160 37 -26 65 -43
61 -38 -3 6 -56 46 -118 91 -62 44 -133 96 -159 115 -27 19 -48 31 -48 26z"/>
<path d="M2450 1898 c0 -10 79 -9 105 2 13 5 -1 8 -42 7 -35 -1 -63 -5 -63 -9z"/>
<path d="M432 1894 c8 -7 88 -8 95 0 4 3 -18 6 -47 6 -29 0 -51 -3 -48 -6z"/>
<path d="M565 1829 c-25 -5 -21 -7 23 -8 28 0 52 3 52 8 0 10 -33 10 -75 0z"/>
<path d="M506 1800 c17 -18 79 -29 116 -20 29 7 25 8 -25 9 -32 1 -68 6 -80
12 -17 9 -19 9 -11 -1z"/>
<path d="M2890 1760 c-41 -28 -80 -55 -87 -60 -7 -6 -29 -22 -50 -37 -21 -14
-31 -24 -23 -21 15 5 217 142 235 159 19 19 -2 7 -75 -41z"/>
<path d="M140 1716 c0 -50 3 -65 17 -70 18 -7 35 12 28 32 -3 8 -5 29 -5 47 0
24 -6 38 -20 45 -19 10 -20 8 -20 -54z"/>
<path d="M2965 1737 c-51 -39 -289 -184 -313 -192 -22 -6 -22 -7 -5 -20 14
-11 16 -16 6 -26 -19 -19 -16 -35 5 -35 10 0 19 6 19 12 0 7 -7 10 -16 7 -31
-10 45 48 97 74 28 14 52 30 52 35 0 5 5 6 10 3 6 -3 10 -2 10 3 0 5 38 31 85
57 76 43 85 51 85 76 0 16 -1 29 -2 29 -2 0 -16 -10 -33 -23z"/>
<path d="M607 1728 c-7 -4 20 -7 58 -7 53 0 65 2 47 10 -26 10 -87 8 -105 -3z"/>
<path d="M2300 1730 c-11 -7 -1 -9 35 -9 40 1 45 3 25 9 -35 11 -43 11 -60 0z"/>
<path d="M200 1679 c-7 -27 -9 -53 -6 -56 3 -4 6 1 6 10 0 10 5 14 15 11 8 -4
15 -15 15 -27 0 -11 2 -18 5 -15 8 7 -7 128 -15 128 -5 0 -13 -23 -20 -51z"/>
<path d="M6 1701 c13 -12 124 -72 124 -66 0 5 -118 75 -128 75 -3 0 -2 -4 4
-9z"/>
<path d="M251 1649 c1 -51 3 -57 8 -29 l7 35 7 -33 c4 -18 13 -40 21 -48 13
-13 14 -8 9 37 -5 38 -3 50 5 45 17 -10 15 3 -3 20 -13 14 -15 11 -16 -23 l-1
-38 -14 44 c-20 64 -24 62 -23 -10z"/>
<path d="M633 1688 c19 -7 47 -7 85 0 l57 9 -85 1 c-69 0 -80 -1 -57 -10z"/>
<path d="M1174 1688 c5 -16 -4 -18 -105 -18 -88 0 -111 -3 -115 -15 -4 -8 -12
-15 -20 -15 -8 0 -14 -5 -14 -11 0 -6 8 -8 18 -5 28 9 44 -9 49 -58 7 -56 23
-51 23 7 0 31 -5 47 -20 57 -11 8 -20 18 -20 22 0 4 120 8 267 8 146 0 264 3
261 6 -3 3 -74 5 -156 5 -134 -1 -152 1 -162 16 -11 17 -11 17 -6 1z"/>
<path d="M2252 1695 c7 -7 118 -9 125 -1 3 3 -24 6 -62 6 -38 0 -66 -2 -63 -5z"/>
<path d="M342 1673 c1 -4 -5 -19 -15 -34 -14 -21 -15 -30 -5 -57 7 -18 16 -32
20 -32 4 0 3 12 -2 26 -13 33 -12 45 5 68 13 18 16 17 67 -20 29 -21 47 -31
41 -23 -7 9 -11 18 -8 21 3 3 -3 11 -12 19 -16 13 -17 12 -4 -3 19 -25 6 -22
-32 6 -43 31 -58 39 -55 29z"/>
<path d="M1570 1669 c-36 -3 56 -6 203 -7 251 -2 268 -3 263 -19 -5 -16 1 -18
49 -18 30 0 55 3 55 8 0 4 -20 7 -45 7 -44 0 -54 7 -36 25 11 11 -379 14 -489
4z"/>
<path d="M2948 1654 c-30 -16 -32 -26 -29 -120 2 -50 2 -51 -38 -69 -50 -22
-48 -31 1 -11 35 15 36 15 36 -9 0 -19 -8 -27 -32 -35 l-31 -10 33 5 c44 6 40
-9 -7 -23 -47 -15 -54 -15 -46 -2 3 6 2 10 -4 10 -6 0 -9 -13 -7 -30 2 -16 -1
-30 -7 -30 -6 0 -8 -2 -6 -5 3 -2 16 -1 29 2 22 6 23 7 4 14 -16 6 -14 9 18
23 21 9 42 16 48 16 20 0 10 -16 -17 -27 l-28 -12 29 6 c36 7 32 -18 -5 -29
-23 -7 -22 -7 4 -4 15 2 27 -1 27 -5 0 -5 -8 -9 -17 -10 -15 0 -15 -2 2 -9 19
-8 19 -8 -5 -18 -23 -10 -24 -11 -3 -11 23 -1 22 7 14 -153 -1 -9 -11 -19 -23
-21 -20 -4 -20 -4 4 -6 22 -1 26 -5 23 -22 -6 -29 -7 -73 -5 -203 2 -82 -1
-111 -11 -117 -10 -6 -11 -9 -1 -9 6 0 12 -10 12 -22 0 -15 3 -19 10 -12 7 7
10 79 8 202 -3 165 -1 192 12 193 10 0 11 2 3 6 -9 3 -13 32 -13 94 0 64 3 89
13 89 8 0 7 3 -3 10 -12 7 -7 12 23 25 20 8 37 18 37 20 0 3 -16 -1 -35 -9
l-35 -15 0 85 0 84 35 17 c19 9 35 20 35 25 0 4 -16 -2 -35 -13 l-35 -21 0 35
c0 32 4 37 35 47 19 6 35 16 35 22 0 7 -4 7 -12 0 -7 -5 -23 -13 -35 -16 -21
-7 -23 -4 -23 28 0 20 4 36 8 36 5 0 17 7 28 15 24 18 17 18 -18 -1z"/>
<path d="M0 1647 c0 -7 12 -20 26 -28 l26 -14 -28 -12 -29 -13 34 4 c65 9 176
-26 134 -41 -10 -4 -13 -126 -13 -568 0 -536 1 -565 18 -577 11 -7 22 -24 25
-38 46 -189 60 -233 68 -218 11 21 -10 139 -32 183 -36 67 -40 85 -24 85 8 0
16 -8 16 -17 1 -10 5 -4 9 12 13 49 12 279 -1 292 -9 9 -6 23 10 57 13 26 21
57 18 73 -4 26 -4 25 -7 -7 l-3 -35 -6 35 c-6 34 -7 32 -25 -38 -11 -44 -22
-70 -28 -64 -8 8 -11 617 -3 672 2 14 4 29 4 35 1 5 6 4 12 -2 6 -6 12 -32 13
-56 0 -25 4 -43 8 -41 4 3 9 -82 11 -188 2 -191 2 -191 5 55 1 159 -2 247 -8
247 -5 0 -10 7 -10 16 0 8 -13 20 -30 25 -33 12 -37 21 -16 38 11 10 22 9 48
-5 54 -27 63 -37 41 -45 -12 -5 -2 -8 29 -8 25 -1 53 -4 62 -7 9 -3 16 -2 16
3 0 5 -42 30 -92 56 -51 26 -135 70 -185 98 -62 34 -93 46 -93 36z m213 -974
c17 -34 17 -177 0 -194 -23 -23 -31 4 -32 111 -1 113 7 133 32 83z"/>
<path d="M798 1633 c23 -2 59 -2 80 0 20 2 1 4 -43 4 -44 0 -61 -2 -37 -4z"/>
<path d="M160 1616 c0 -6 118 -76 128 -76 8 0 -20 19 -80 54 -27 15 -48 25
-48 22z"/>
<path d="M45 965 c0 -314 1 -440 2 -282 2 159 2 415 0 570 -1 155 -2 26 -2
-288z"/>
<path d="M75 965 c0 -314 1 -440 2 -282 2 159 2 415 0 570 -1 155 -2 26 -2
-288z"/>
<path d="M105 970 c0 -311 1 -438 2 -283 2 156 2 410 0 565 -1 156 -2 29 -2
-282z"/>
<path d="M481 1300 c0 -113 4 -225 8 -250 l8 -45 2 45 c1 25 2 123 2 218 1 96
4 183 6 193 5 19 13 20 119 17 63 -2 114 -1 114 2 0 3 38 3 85 1 67 -2 85 0
85 11 0 11 -39 13 -215 13 l-215 0 1 -205z"/>
<path d="M953 1503 c-25 -3 -33 -9 -33 -24 0 -19 1 -19 16 -5 12 12 20 13 35
6 18 -10 19 -25 19 -316 0 -302 0 -305 -20 -294 -11 6 -20 7 -20 3 0 -4 -4 -1
-10 7 -5 9 -5 19 1 26 12 15 2 41 -18 48 -24 10 -29 -2 -8 -18 17 -12 17 -16
5 -31 -13 -16 -14 -15 -22 4 -9 26 -38 27 -69 3 -27 -22 -60 -25 -52 -6 3 8
-8 16 -29 22 -28 7 -34 6 -40 -10 -8 -21 -24 -24 -32 -5 -3 6 -3 1 0 -13 9
-37 31 -57 46 -42 7 7 18 12 25 12 21 0 15 -20 -9 -30 -13 -5 -19 -9 -14 -9 5
-1 3 -8 -4 -16 -11 -13 -8 -15 14 -15 22 0 26 -4 27 -32 1 -18 3 -25 6 -15 2
9 9 17 14 17 5 0 7 15 5 33 -4 39 2 57 20 57 8 0 14 5 14 10 0 6 5 10 12 10 9
0 9 -3 1 -11 -12 -12 -6 -39 11 -52 6 -5 -4 -5 -21 -2 -37 7 -42 -1 -15 -22 9
-8 11 -12 5 -8 -7 3 -13 3 -14 -2 0 -4 -2 -18 -5 -30 -5 -29 12 -30 19 -2 3
12 11 19 18 17 21 -7 22 -28 2 -29 -11 0 -13 -3 -5 -6 7 -3 24 2 37 11 13 9
26 12 29 7 3 -5 -1 -12 -10 -15 -15 -6 -15 -8 1 -26 22 -24 38 -25 55 -5 10
12 10 19 2 27 -9 9 -12 8 -12 -4 0 -22 -19 -33 -32 -20 -8 8 -8 15 0 25 9 10
9 16 0 25 -9 9 -7 12 11 12 18 0 22 4 18 20 -3 11 -1 20 4 20 5 0 9 7 9 15 0
8 7 15 15 15 18 0 19 -9 5 -45 -9 -24 -8 -26 10 -20 18 6 20 2 20 -39 0 -38
-4 -48 -25 -62 -40 -26 -49 -51 -31 -79 9 -14 16 -44 16 -68 0 -36 -4 -46 -20
-50 -16 -4 -21 1 -26 30 -4 19 -4 52 -1 73 3 27 -1 47 -15 70 -16 28 -23 31
-49 26 -22 -4 -29 -2 -29 9 0 8 -4 15 -10 15 -5 0 -7 -7 -4 -15 5 -11 -2 -15
-27 -15 -56 0 -24 -11 42 -14 l64 -3 -1 -99 c0 -58 -5 -108 -12 -121 -13 -23
-12 -23 53 -23 l65 0 0 91 c0 90 0 91 23 85 12 -3 55 -6 96 -6 59 0 72 -3 68
-14 -5 -12 -2 -12 19 -1 13 7 49 13 79 14 l54 1 4 -153 3 -152 2 153 2 153
106 -2 c91 -1 104 -3 99 -17 -5 -14 -4 -14 12 -1 22 18 128 20 128 2 0 -6 3
-15 8 -19 4 -4 7 5 7 20 0 17 4 25 11 21 6 -4 46 -7 90 -6 47 1 79 -3 79 -9 0
-5 5 -10 11 -10 5 0 8 3 6 8 -3 4 19 7 48 7 30 0 60 6 67 13 10 10 -94 12
-520 12 -515 0 -532 1 -532 19 0 20 18 31 51 31 18 0 19 13 19 424 0 377 -2
425 -16 430 -9 3 -16 5 -17 4 -1 0 -17 -3 -34 -5z m-203 -603 c0 -21 -24 -28
-35 -10 -8 14 3 30 21 30 8 0 14 -9 14 -20z m136 9 c9 -15 -11 -33 -30 -26 -9
4 -13 13 -10 22 7 17 30 20 40 4z m12 -62 c17 -13 15 -27 -4 -27 -8 0 -13 4
-10 9 3 5 -3 11 -14 14 -11 3 -20 10 -20 16 0 11 26 5 48 -12z m-12 -72 c-8
-21 -33 -18 -39 4 -3 15 1 21 17 23 23 3 31 -5 22 -27z m78 -336 c-7 -12 -71
-12 -79 0 -3 5 3 11 12 13 28 6 73 -3 67 -13z"/>
<path d="M2291 1500 c-22 -13 0 -17 99 -18 76 0 96 -4 106 -17 9 -12 12 -88
11 -281 -2 -223 -4 -266 -17 -275 -9 -6 -43 -7 -83 -4 -56 5 -68 4 -73 -10 -4
-9 -15 -15 -25 -13 -10 2 -18 -1 -19 -7 0 -5 8 -11 20 -13 20 -3 29 -22 11
-22 -11 0 -3 -66 10 -90 5 -9 9 13 9 58 l0 72 95 0 95 0 0 314 0 314 -113 0
c-62 0 -119 -3 -126 -8z"/>
<path d="M11 953 c-1 -304 3 -553 7 -553 11 0 14 1039 3 1075 -6 20 -10 -162
-10 -522z"/>
<path d="M1180 1150 c0 -190 -2 -356 -5 -370 -3 -14 4 2 15 35 12 33 27 66 35
74 12 12 15 11 20 -10 3 -13 5 -44 3 -69 -1 -25 -1 -71 0 -102 l2 -58 74 0
c70 0 75 1 78 23 2 14 10 22 23 22 26 0 35 13 35 53 0 27 4 32 24 32 21 0 24
-5 30 -62 3 -34 7 -62 9 -64 5 -4 94 -7 180 -6 l87 2 0 75 0 75 30 0 30 0 0
351 c0 316 -2 351 -16 345 -9 -3 -85 -6 -170 -6 -116 0 -154 -3 -154 -12 0
-10 34 -13 144 -11 111 2 147 -1 156 -12 8 -9 10 -102 8 -314 -3 -252 -5 -303
-18 -311 -11 -7 -17 -2 -26 19 -7 17 -22 31 -39 35 -32 8 -46 1 -17 -8 26 -9
32 -26 39 -108 l6 -68 -44 -20 c-45 -20 -102 -25 -158 -14 -47 10 -40 34 10
34 36 0 40 -2 29 -15 -11 -13 -8 -15 14 -15 62 0 116 48 109 97 -7 44 -23 31
-23 -18 l0 -39 -45 0 -44 0 -3 68 c-3 63 -4 65 -11 27 -5 -22 -10 -50 -13 -62
-6 -30 -28 -20 -53 23 -28 48 -63 46 -95 -3 -46 -69 -53 -76 -81 -71 -14 3
-25 1 -25 -3 0 -19 -31 -8 -39 14 -19 49 -24 119 -10 127 10 7 10 16 -1 52 -7
24 -15 38 -17 32 -5 -13 -51 -6 -60 10 -13 20 -5 517 9 533 10 12 38 14 150
11 103 -2 138 0 138 9 0 9 -44 13 -160 15 l-160 3 0 -345z"/>
<path d="M2002 1410 c3 -50 7 -92 9 -94 2 -2 15 4 28 15 22 18 22 19 3 19 -22
0 -22 -1 -13 118 1 10 28 12 121 10 91 -2 120 0 120 10 0 9 -34 12 -136 12
l-136 0 4 -90z"/>
<path d="M1075 1065 c0 -231 1 -324 2 -207 2 117 2 306 0 420 -1 114 -2 18 -2
-213z"/>
<path d="M1125 1065 c0 -231 1 -324 2 -207 2 117 2 306 0 420 -1 114 -2 18 -2
-213z"/>
<path d="M1880 1318 c0 -89 2 -159 5 -156 9 8 11 318 3 318 -5 0 -8 -73 -8
-162z"/>
<path d="M1908 1308 c-2 -95 -1 -252 2 -348 5 -139 6 -104 8 173 1 191 0 347
-3 347 -2 0 -5 -78 -7 -172z"/>
<path d="M1964 1070 c1 -228 2 -328 3 -221 3 135 7 199 16 210 9 12 9 13 0 7
-10 -5 -13 7 -13 48 0 38 4 56 13 56 9 0 9 2 0 8 -9 5 -13 53 -16 157 -1 83
-3 -37 -3 -265z"/>
<path d="M1104 1275 c0 -99 2 -138 3 -87 2 51 2 132 0 180 -1 48 -3 6 -3 -93z"/>
<path d="M2569 1423 c-2 -16 -2 -143 1 -283 l6 -255 2 283 c2 262 0 323 -9
255z"/>
<path d="M390 1423 c-13 -15 -14 -56 -10 -258 6 -263 13 -243 14 43 1 180 1
183 25 201 21 16 21 19 6 24 -21 9 -18 10 -35 -10z"/>
<path d="M294 1195 c0 -126 2 -177 3 -112 2 65 2 168 0 230 -1 62 -3 9 -3
-118z"/>
<path d="M274 1195 c0 -121 2 -169 3 -107 2 62 2 161 0 220 -1 59 -3 8 -3
-113z"/>
<path d="M324 1225 c0 -104 2 -146 3 -92 2 54 2 139 0 190 -1 51 -3 7 -3 -98z"/>
<path d="M344 1275 c0 -77 2 -107 3 -67 2 40 2 103 0 140 -2 37 -3 4 -3 -73z"/>
<path d="M1466 1390 c-16 -5 -45 -24 -64 -42 -116 -111 -61 -288 91 -288 57 0
104 18 132 51 18 21 17 21 -12 -3 -89 -73 -227 -28 -249 80 -15 75 32 159 101
182 19 6 35 16 35 21 0 5 -1 9 -2 8 -2 0 -16 -5 -32 -9z"/>
<path d="M714 1379 c-11 -4 -34 -23 -52 -43 -38 -44 -42 -94 -12 -143 27 -45
54 -56 118 -51 46 4 59 10 78 33 12 16 24 39 27 52 5 29 0 25 -21 -19 -36 -71
-141 -73 -183 -4 -24 39 -24 73 0 112 32 52 144 74 137 27 -2 -10 -1 -12 1 -5
3 6 8 12 13 12 13 0 40 -42 40 -62 0 -10 4 -18 10 -18 10 0 1 31 -20 70 -19
36 -90 57 -136 39z"/>
<path d="M2225 1378 c-11 -6 -45 -36 -75 -67 -54 -56 -55 -57 -25 -53 30 3 30
3 -10 -23 l-40 -26 38 7 c32 5 37 4 37 -13 0 -11 8 -27 18 -36 24 -22 92 -36
122 -25 13 5 29 7 35 4 6 -2 22 8 36 22 20 21 24 35 24 89 0 60 -2 66 -34 93
-18 17 -36 31 -40 31 -39 7 -70 6 -86 -3z m102 -28 c79 -48 56 -179 -34 -196
-44 -8 -91 12 -114 50 -23 38 -24 67 -4 106 29 57 96 75 152 40z"/>
<path d="M1510 1360 c0 -5 14 -10 31 -10 26 0 31 -3 26 -20 -6 -21 9 -28 16
-7 3 9 8 9 21 -2 9 -8 15 -20 12 -27 -3 -7 -1 -14 4 -16 5 -2 11 -15 15 -30 5
-20 3 -27 -12 -31 -14 -4 -14 -5 -2 -6 12 -1 15 -8 11 -27 -2 -14 -10 -23 -16
-21 -6 3 -11 -6 -11 -19 0 -31 1 -30 25 9 37 60 20 145 -37 185 -34 23 -83 37
-83 22z"/>
<path d="M2750 1345 c0 -7 -8 -19 -17 -25 -16 -10 -16 -11 -1 -6 13 4 18 -3
20 -32 3 -30 4 -26 8 21 3 31 2 57 -2 57 -5 0 -8 -7 -8 -15z"/>
<path d="M1525 1250 c-17 -19 -19 -19 -39 -3 -16 14 -18 15 -8 2 7 -9 10 -24
6 -33 -10 -25 4 -19 42 19 19 19 31 35 26 35 -5 0 -17 -9 -27 -20z"/>
<path d="M2755 1241 c-65 -25 -82 -40 -55 -49 6 -2 9 1 8 8 -2 6 25 22 60 35
60 22 87 36 66 34 -5 0 -40 -13 -79 -28z"/>
<path d="M2773 1223 l-23 -4 2 -327 3 -327 2 321 3 321 33 11 c32 10 21 13
-20 5z"/>
<path d="M2006 1204 c-9 -23 -1 -28 24 -14 18 10 20 14 9 21 -20 12 -26 11
-33 -7z"/>
<path d="M2070 1144 c-36 -19 -66 -39 -68 -44 -6 -16 5 -12 62 25 30 19 60 35
66 35 5 0 10 5 10 10 0 13 5 15 -70 -26z"/>
<path d="M2820 1156 c0 -14 5 -28 10 -31 6 -4 10 7 10 24 0 17 -4 31 -10 31
-5 0 -10 -11 -10 -24z"/>
<path d="M2080 1112 c-91 -45 -85 -41 -78 -48 6 -5 158 74 158 82 0 6 1 6 -80
-34z"/>
<path d="M344 1045 c0 -49 1 -71 3 -48 2 23 2 64 0 90 -2 26 -3 8 -3 -42z"/>
<path d="M2168 1101 c-21 -10 -41 -21 -45 -24 -8 -9 54 13 87 30 37 19 1 14
-42 -6z"/>
<path d="M1285 1034 c-9 -9 -14 -23 -11 -31 4 -8 9 -27 12 -41 9 -36 23 -52
40 -45 20 7 17 20 -6 26 -15 4 -20 14 -20 41 0 33 2 36 30 36 32 0 40 14 14
24 -26 10 -42 7 -59 -10z"/>
<path d="M2006 1005 c-4 -14 -2 -33 4 -43 10 -15 11 -15 6 2 -4 10 -1 25 5 33
8 9 9 17 2 24 -7 7 -13 2 -17 -16z"/>
<path d="M1632 1008 c-7 -7 -11 -21 -11 -32 1 -17 2 -18 6 -3 6 21 17 22 33 2
7 -8 19 -15 26 -15 12 0 12 -4 2 -20 -15 -24 -4 -37 17 -20 19 16 19 33 0 70
-16 32 -51 40 -73 18z"/>
<path d="M485 990 c-3 -5 3 -10 14 -10 15 0 21 -6 21 -21 0 -11 5 -17 10 -14
6 3 10 -1 10 -10 0 -9 5 -13 10 -10 14 9 13 48 -2 63 -15 15 -54 16 -63 2z"/>
<path d="M2240 980 c-6 -12 -9 -29 -5 -39 8 -26 -4 -51 -26 -51 -10 0 -19 -4
-19 -10 0 -5 -5 -10 -10 -10 -6 0 -5 8 2 21 11 17 10 22 -4 33 -12 9 -13 14
-5 22 7 5 10 8 8 7 -2 -1 -13 3 -24 9 -17 9 -19 8 -14 -6 8 -20 -12 -33 -24
-15 -6 10 -9 8 -9 -8 0 -14 -6 -23 -15 -23 -8 0 -15 9 -15 20 0 19 -1 20 -25
4 -14 -9 -32 -14 -40 -10 -9 3 -15 0 -15 -9 0 -17 23 -19 50 -5 13 7 19 6 24
-5 3 -8 1 -15 -5 -15 -5 0 -15 -11 -21 -25 -14 -30 -28 -33 -28 -5 0 11 -4 20
-10 20 -6 0 -10 -45 -10 -114 0 -112 0 -114 24 -120 30 -7 43 -46 15 -46 -17
0 -19 -8 -19 -75 l0 -75 54 3 54 2 -2 98 c-1 106 -20 133 -23 32 0 -33 -1 -70
-2 -83 -1 -27 -29 -41 -42 -21 -14 22 -10 92 6 113 20 26 19 29 -11 59 -21 21
-27 38 -31 92 -4 59 -3 64 13 58 13 -5 15 -3 9 7 -5 8 -2 17 7 24 8 6 17 19
21 29 9 24 27 21 27 -5 0 -21 0 -21 20 -3 18 17 19 20 5 28 -13 7 -14 12 -4
23 22 26 36 16 36 -26 0 -33 -3 -40 -19 -40 -11 0 -16 -4 -13 -10 3 -5 0 -10
-8 -10 -8 0 -18 8 -21 17 -5 13 -9 14 -19 4 -9 -10 -8 -15 6 -26 14 -10 15
-14 5 -18 -9 -4 -7 -11 10 -25 26 -24 29 -34 5 -25 -13 5 -13 3 3 -13 17 -18
19 -18 24 -3 4 13 8 14 16 5 5 -6 11 -14 12 -19 3 -16 18 -34 32 -41 9 -4 6
-5 -6 -2 -12 2 -27 0 -34 -4 -7 -5 2 -9 24 -12 32 -3 36 -1 36 18 0 14 -8 25
-20 29 -19 6 -19 6 0 58 17 44 18 53 5 59 -17 10 -8 41 10 35 18 -7 75 50 69
68 -4 11 -2 13 9 9 9 -3 20 2 26 15 9 16 7 23 -11 35 -30 21 -45 20 -58 -4z
m-80 -202 c0 -26 -30 -20 -40 8 -7 18 -5 20 16 16 16 -3 24 -11 24 -24z"/>
<path d="M252 933 c-13 -24 -4 -43 19 -43 10 0 19 -7 19 -15 0 -8 4 -15 9 -15
5 0 11 -9 14 -20 3 -11 10 -20 17 -20 7 0 4 13 -9 33 l-20 33 22 14 c12 8 25
13 29 12 4 -1 5 5 1 14 -4 11 -14 14 -34 10 -16 -3 -31 -1 -34 4 -9 15 -23 12
-33 -7z"/>
<path d="M480 915 c0 -15 13 -30 28 -32 6 -2 12 1 12 6 0 5 3 16 6 24 4 11 -1
15 -20 13 -14 0 -26 -5 -26 -11z"/>
<path d="M1625 899 c-35 -21 -164 -26 -197 -8 -18 10 -20 9 -15 -6 4 -9 7 -19
7 -21 0 -2 38 -4 85 -4 58 0 96 5 115 15 17 9 30 11 30 5 0 -14 17 -13 23 3
10 25 -17 34 -48 16z"/>
<path d="M1350 884 c0 -17 6 -24 20 -24 13 0 20 7 20 19 0 10 -9 21 -20 24
-16 4 -20 0 -20 -19z"/>
<path d="M568 880 c12 -10 27 -20 33 -22 7 -2 19 -35 29 -72 10 -42 20 -64 25
-56 6 9 9 9 15 0 5 -7 8 -2 8 13 0 19 -5 24 -16 20 -12 -5 -14 -1 -9 20 5 16
3 27 -6 30 -9 3 -9 7 0 17 13 14 37 4 27 -11 -3 -5 2 -22 12 -37 10 -15 19
-30 19 -34 0 -17 16 -19 30 -4 15 14 15 16 1 16 -9 0 -16 4 -16 9 0 5 -7 17
-16 25 -8 9 -11 16 -5 16 6 0 10 6 9 13 -3 14 -37 31 -56 28 -6 -1 -27 10 -46
24 -39 29 -73 35 -38 5z"/>
<path d="M1103 830 c0 -41 2 -58 4 -37 2 20 2 54 0 75 -2 20 -4 3 -4 -38z"/>
<path d="M1310 858 c0 -51 9 -88 21 -88 10 0 11 39 3 93 -9 50 -24 47 -24 -5z"/>
<path d="M2833 835 c0 -33 2 -45 4 -27 2 18 2 45 0 60 -2 15 -4 0 -4 -33z"/>
<path d="M382 790 c0 -71 1 -79 9 -51 7 21 7 52 1 85 -9 50 -10 49 -10 -34z"/>
<path d="M473 858 c-6 -7 -14 -29 -18 -48 -10 -42 -12 -220 -4 -214 9 5 19
-87 19 -168 0 -67 0 -68 28 -68 l27 0 -2 77 c0 43 -8 98 -17 123 -8 24 -13 55
-10 67 5 17 2 23 -10 23 -13 0 -16 13 -16 79 0 44 5 92 10 107 12 30 8 41 -7
22z"/>
<path d="M498 858 c-4 -10 -9 -59 -12 -110 l-5 -93 14 90 c15 94 16 146 3 113z"/>
<path d="M2458 863 l-96 -4 -4 -77 c-3 -68 -1 -81 20 -109 22 -32 25 -33 97
-33 41 0 77 -4 80 -10 3 -5 24 -10 46 -10 30 0 39 -4 39 -17 0 -15 -9 -18 -45
-18 -34 0 -45 3 -45 15 -1 12 -3 12 -11 -2 -8 -14 -24 -18 -79 -18 -64 0 -94
10 -70 25 15 9 12 19 -9 32 -18 11 -19 8 -23 -33 l-3 -44 157 0 158 0 0 149
c0 167 2 163 -73 159 -23 -1 -86 -4 -139 -5z m83 -33 l99 0 0 -32 c0 -18 -3
-57 -6 -85 l-7 -53 -113 0 -114 0 0 83 c0 87 4 101 28 92 7 -3 58 -5 113 -5z"/>
<path d="M566 759 c4 -28 0 -60 -9 -86 -18 -53 -8 -56 20 -5 17 32 19 43 9 79
-15 58 -27 65 -20 12z"/>
<path d="M2217 756 c-5 -12 -1 -26 9 -37 12 -13 14 -22 7 -31 -18 -23 -21 -72
-9 -158 l11 -85 45 3 c25 2 46 5 48 7 2 2 6 46 9 99 5 83 3 101 -13 131 -16
31 -23 35 -46 30 -24 -6 -29 -2 -41 26 -11 29 -14 31 -20 15z m88 -87 c9 -28
-4 -167 -17 -175 -13 -8 -18 -1 -24 32 -2 16 -9 53 -15 82 -6 29 -8 60 -5 68
9 22 54 17 61 -7z"/>
<path d="M272 742 c-8 -13 -11 -31 -7 -39 9 -26 27 0 23 33 l-3 29 -13 -23z"/>
<path d="M1853 743 c30 -3 50 -10 54 -19 8 -21 23 -17 23 6 0 18 -6 20 -62 18
-58 -1 -59 -2 -15 -5z"/>
<path d="M286 685 c-3 -9 6 -28 24 -48 l29 -32 -8 32 c-8 26 -7 31 5 26 15 -6
17 -14 14 -87 -2 -59 -17 -103 -30 -90 -6 6 -12 32 -16 59 -8 77 -13 95 -25
95 -8 0 -10 -19 -5 -62 13 -119 15 -126 47 -130 49 -7 53 1 54 120 0 61 -2
112 -5 115 -3 2 -21 7 -41 11 -28 5 -38 3 -43 -9z"/>
<path d="M1180 675 c0 -18 5 -25 20 -25 20 0 20 1 4 25 -9 14 -18 25 -20 25
-2 0 -4 -11 -4 -25z"/>
<path d="M1815 690 c-4 -6 17 -10 54 -10 34 0 61 4 61 10 0 6 -24 10 -54 10
-30 0 -58 -4 -61 -10z"/>
<path d="M1441 675 c-10 -46 -11 -45 40 -45 34 0 48 4 43 11 -3 6 -21 9 -40 7
-27 -3 -34 0 -37 17 -2 11 -5 16 -6 10z"/>
<path d="M2857 663 c-4 -3 -7 -25 -6 -47 0 -28 3 -35 8 -22 4 10 18 24 32 32
l24 13 -28 1 c-16 0 -26 4 -22 10 10 16 52 12 59 -6 3 -9 6 -27 6 -41 0 -20
-4 -24 -22 -22 -28 4 -48 -7 -48 -27 0 -10 13 -14 50 -14 l50 0 0 65 0 65 -48
0 c-27 0 -52 -3 -55 -7z"/>
<path d="M1800 650 c0 -6 27 -10 60 -10 33 0 60 4 60 10 0 6 -27 10 -60 10
-33 0 -60 -4 -60 -10z"/>
<path d="M717 633 c-4 -3 -7 -34 -7 -69 0 -79 -6 -94 -38 -94 -36 0 -19 -12
23 -16 l35 -3 0 94 c0 95 -1 101 -13 88z"/>
<path d="M2465 610 c-3 -5 -19 -7 -35 -3 -19 3 -30 1 -30 -6 0 -6 17 -11 40
-11 29 0 40 4 40 15 0 17 -6 19 -15 5z"/>
<path d="M2768 543 c47 -10 72 -20 72 -29 0 -9 11 -14 33 -13 26 1 28 3 7 6
-13 3 -29 12 -35 20 -12 16 -75 33 -120 32 -17 -1 1 -8 43 -16z"/>
<path d="M2438 533 c45 -2 119 -2 165 0 45 1 8 3 -83 3 -91 0 -128 -2 -82 -3z"/>
<path d="M1110 515 c-10 -13 -9 -15 12 -15 13 0 33 7 44 15 18 14 17 14 -12
15 -17 0 -37 -7 -44 -15z"/>
<path d="M1456 515 c-19 -14 -18 -15 10 -15 17 0 39 7 50 15 18 14 18 14 -11
14 -16 0 -39 -6 -49 -14z"/>
<path d="M1679 493 c-2 -21 -1 -78 2 -128 5 -90 5 -89 7 38 2 124 -2 165 -9
90z"/>
<path d="M1810 515 c-11 -13 -8 -14 21 -9 47 9 60 24 22 24 -17 0 -36 -7 -43
-15z"/>
<path d="M2696 451 l-7 -80 -43 5 c-25 4 -52 2 -62 -5 -15 -8 -6 -10 44 -11
49 0 62 -3 62 -15 0 -26 54 -155 60 -144 4 5 15 -15 25 -44 14 -41 15 -58 7
-73 -6 -11 -12 -13 -12 -6 0 7 -4 11 -9 7 -5 -3 -19 8 -30 24 -29 40 -82 71
-122 71 -33 0 -32 0 19 -26 28 -14 65 -41 82 -61 26 -30 38 -35 73 -35 94 -1
100 1 161 57 33 30 57 58 54 61 -11 10 -64 -24 -98 -63 -19 -21 -31 -31 -28
-22 4 9 1 16 -7 16 -8 0 -13 -5 -12 -10 1 -5 -4 -12 -12 -15 -8 -2 -11 -1 -9
4 6 10 30 64 78 173 29 68 47 161 31 161 -14 0 -49 -46 -66 -85 -9 -22 -25
-85 -35 -140 -16 -86 -19 -94 -21 -55 l-2 45 -7 -55 c-4 -36 -8 -45 -9 -25
-12 149 -30 216 -67 246 -15 12 -16 12 -9 0 5 -9 4 -12 -3 -7 -5 3 -9 21 -8
39 2 17 4 51 5 75 1 52 5 53 156 12 110 -30 133 -35 123 -25 -4 5 -178 54
-240 69 -14 3 -33 8 -41 12 -11 4 -16 -11 -21 -75z m218 -152 c-14 -35 -35
-73 -46 -84 -11 -11 -18 -15 -15 -10 3 6 22 46 41 89 43 94 57 97 20 5z m-162
-71 c-6 -6 -14 3 -21 22 -15 45 -1 63 17 21 8 -21 10 -37 4 -43z"/>
<path d="M1133 463 c32 -2 81 -2 110 0 29 2 3 3 -58 3 -60 0 -84 -1 -52 -3z"/>
<path d="M543 420 c4 -14 7 -33 7 -42 0 -14 8 -18 35 -18 33 0 34 1 23 25 -6
14 -16 25 -21 25 -6 0 -19 8 -30 18 -20 16 -20 16 -14 -8z"/>
<path d="M1816 425 c-19 -14 -18 -15 16 -15 20 0 40 5 43 10 3 6 2 10 -4 10
-5 0 -15 2 -23 5 -7 2 -22 -2 -32 -10z"/>
<path d="M2020 423 c0 -9 16 -13 53 -13 28 0 69 -3 90 -6 24 -5 37 -3 37 5 0
6 -10 11 -23 11 -13 0 -26 3 -29 6 -4 3 -34 7 -67 8 -45 2 -61 -1 -61 -11z"/>
<path d="M270 401 c0 -25 -5 -30 -27 -34 -28 -4 -28 -4 -3 -6 34 -1 49 -43 52
-137 l2 -69 3 60 c6 116 12 145 34 145 13 0 19 7 19 23 -1 20 -2 20 -11 5 -14
-25 -23 -22 -36 12 -14 38 -33 39 -33 1z"/>
<path d="M622 421 c-7 -4 32 -11 89 -14 99 -6 120 -4 106 9 -9 10 -181 14
-195 5z"/>
<path d="M1115 420 c-4 -6 6 -10 24 -10 16 0 33 5 36 10 4 6 -6 10 -24 10 -16
0 -33 -4 -36 -10z"/>
<path d="M1465 420 c-4 -6 6 -10 24 -10 16 0 33 5 36 10 4 6 -6 10 -24 10 -16
0 -33 -4 -36 -10z"/>
<path d="M2224 419 c-2 -4 -6 -39 -9 -78 -2 -39 -6 -74 -9 -79 -2 -4 -1 -23 4
-42 4 -19 8 -26 9 -15 1 15 3 17 10 6 5 -8 14 -10 21 -6 10 6 9 11 -4 21 -22
15 -22 34 -2 114 8 36 16 70 16 76 0 12 -28 15 -36 3z"/>
<path d="M2796 395 c-4 -18 -1 -45 5 -61 6 -16 14 -56 19 -89 l8 -60 0 60 c0
33 4 74 9 90 12 41 2 90 -19 91 -11 1 -18 -9 -22 -31z"/>
<path d="M0 375 c0 -16 28 -19 69 -8 23 6 23 7 5 14 -34 13 -74 10 -74 -6z"/>
<path d="M2276 338 c7 -54 24 -91 24 -51 0 11 3 34 6 51 5 24 2 32 -15 42 -21
11 -22 10 -15 -42z"/>
<path d="M386 359 c-35 -27 -46 -50 -62 -128 -16 -77 -18 -103 -6 -83 6 8 9 1
9 -19 0 -27 -2 -29 -13 -15 -10 15 -12 14 -19 -11 -6 -26 -8 -27 -20 -10 -13
17 -14 17 -20 -4 -5 -15 -10 -18 -15 -9 -4 6 -10 10 -13 8 -3 -1 -15 9 -26 24
-27 34 -76 64 -118 71 -42 8 -43 -9 -2 -18 17 -4 54 -29 82 -56 l51 -49 73 0
c72 0 72 0 118 44 25 25 61 50 80 56 45 15 46 30 2 20 -45 -10 -59 -18 -113
-70 -31 -30 -45 -38 -41 -25 4 11 11 40 16 65 10 43 59 173 81 213 14 24 -10
23 -44 -4z m2 -61 c-10 -29 -28 -62 -39 -73 -20 -20 -20 -20 -12 0 13 32 63
125 67 125 2 0 -5 -24 -16 -52z"/>
<path d="M1208 373 c17 -2 47 -2 65 0 17 2 3 4 -33 4 -36 0 -50 -2 -32 -4z"/>
<path d="M165 335 c7 -37 37 -117 41 -112 5 5 -23 103 -35 123 -11 16 -11 15
-6 -11z"/>
<path d="M654 318 c3 -17 6 -53 6 -80 0 -48 1 -48 23 -36 18 10 19 13 6 16
-13 2 -16 14 -15 50 1 44 3 47 29 47 15 -1 27 3 27 7 0 5 8 3 18 -3 12 -7 31
-9 48 -5 43 11 13 23 -75 29 l-73 5 6 -30z"/>
<path d="M2546 334 c-3 -9 -6 -34 -6 -56 l0 -41 -52 6 c-52 6 -52 6 -25 -9 15
-8 38 -14 50 -12 17 2 22 -2 22 -19 0 -13 6 -28 13 -35 7 -7 12 -42 12 -90 0
-43 3 -78 8 -78 4 0 4 48 0 108 -4 59 -5 137 -1 175 3 43 2 67 -5 67 -5 0 -13
-7 -16 -16z"/>
<path d="M874 331 c-14 -14 3 -21 51 -21 30 0 55 4 55 9 0 9 -98 20 -106 12z"/>
<path d="M1110 325 c-10 -13 -8 -15 18 -15 41 0 61 24 22 27 -16 1 -34 -4 -40
-12z"/>
<path d="M1460 325 c-11 -13 -8 -15 18 -15 16 0 35 7 42 15 11 13 8 15 -18 15
-16 0 -35 -7 -42 -15z"/>
<path d="M1810 325 c-11 -13 -8 -15 18 -15 16 0 35 7 42 15 11 13 8 15 -18 15
-16 0 -35 -7 -42 -15z"/>
<path d="M80 286 c0 -9 26 -45 59 -80 32 -35 64 -73 70 -85 7 -12 16 -19 21
-16 4 3 11 -1 13 -7 4 -9 6 -8 6 2 0 8 -4 22 -9 30 -8 12 -10 12 -10 -5 -1
-15 -7 -10 -25 20 -27 44 -32 60 -13 49 7 -4 3 7 -8 25 -24 41 -104 92 -104
67z"/>
<path d="M2620 280 c0 -6 6 -10 13 -10 9 0 8 -3 -2 -9 -10 -7 -2 -20 36 -57
27 -27 59 -62 71 -79 12 -16 22 -27 22 -24 0 3 -11 20 -25 39 -27 37 -35 68
-8 35 16 -20 16 -20 9 0 -14 39 -51 84 -83 99 -18 9 -33 11 -33 6z"/>
<path d="M978 261 c4 -10 -2 -12 -29 -5 -60 13 -74 11 -77 -15 -3 -19 0 -22
13 -17 9 3 204 7 433 8 l417 3 -370 5 -370 5 507 3 c318 1 509 6 513 12 4 6
-178 11 -518 12 -439 3 -524 1 -519 -11z"/>
<path d="M2949 257 c-15 -12 -35 -35 -45 -52 l-18 -30 22 19 c29 25 28 8 -3
-34 -14 -19 -25 -36 -25 -39 0 -3 10 8 22 24 13 17 39 46 60 65 59 55 46 98
-13 47z"/>
<path d="M424 252 c-12 -9 -30 -30 -40 -47 l-18 -30 22 19 c23 20 31 10 10
-14 -7 -7 11 6 39 30 29 23 50 47 47 51 -8 14 -37 10 -60 -9z"/>
<path d="M2277 223 c7 -46 13 -55 13 -22 0 17 3 20 9 11 4 -8 19 -12 32 -10
24 4 24 4 -4 16 -15 6 -30 19 -33 27 -12 29 -23 14 -17 -22z"/>
<path d="M1840 234 c36 -7 290 -10 290 -2 0 4 -69 7 -152 7 -84 -1 -146 -3
-138 -5z"/>
<path d="M2355 230 c3 -5 12 -10 19 -10 9 0 16 -20 20 -62 13 -135 18 -158 32
-158 8 0 14 10 14 26 l0 26 31 -26 c17 -14 35 -26 40 -26 5 0 9 37 9 83 l0 83
-62 37 c-58 34 -117 50 -103 27z m118 -63 c19 -16 37 -137 21 -137 -6 0 -24
12 -41 27 -31 27 -40 59 -34 126 1 19 14 15 54 -16z"/>
<path d="M800 156 c0 -30 -4 -58 -10 -61 -5 -3 -10 -11 -10 -17 0 -6 12 -1 26
13 14 13 21 25 15 27 -5 2 -8 23 -5 48 2 26 0 44 -6 44 -5 0 -10 -24 -10 -54z"/>
<path d="M626 154 c-3 -9 -6 -34 -6 -55 l0 -40 -105 2 c-58 1 -109 -1 -112 -5
-4 -3 44 -6 106 -6 110 0 112 0 121 -25 5 -14 15 -25 22 -24 10 0 10 2 1 6 -9
3 -13 29 -13 81 0 54 3 72 10 62 5 -8 10 -33 11 -55 l2 -40 6 45 c5 33 3 48
-8 58 -20 16 -28 15 -35 -4z"/>
<path d="M0 60 c0 -12 101 -11 140 1 16 5 -4 8 -57 8 -51 1 -83 -3 -83 -9z"/>
<path d="M757 63 c-11 -10 -8 -63 3 -63 6 0 10 16 10 35 0 36 -2 40 -13 28z"/>
<path d="M2925 60 c3 -5 22 -10 41 -10 19 0 34 5 34 10 0 6 -18 10 -41 10 -24
0 -38 -4 -34 -10z"/>
<path d="M707 24 c-25 -21 -26 -24 -8 -24 11 0 25 9 31 21 16 30 9 31 -23 3z"/>
<path d="M20 9 c-16 -4 3 -7 54 -8 44 -1 77 2 73 5 -9 9 -99 12 -127 3z"/>
<path d="M400 9 c0 -5 32 -9 72 -9 39 0 69 2 67 4 -9 8 -139 13 -139 5z"/>
</g>
</svg>
