<svg version="1.1" id="Layer_1" xmlns="http://www.w3.org/2000/svg" xmlns:xlink="http://www.w3.org/1999/xlink" x="0px" y="0px"
	 viewBox="0 0 431.357 431.357" style="enable-background:new 0 0 431.357 431.357;" xml:space="preserve">
<g>
	<path style="fill:#F7B239;" d="M328.189,386.778v2.581c0,19.879-16.12,35.999-36,35.999H139.168
		c-19.879,0-35.999-16.12-35.999-35.999v-2.581h45.59h133.84H328.189"/>
	<path style="fill:#A17A36;" d="M138.168,386.778h-34.999v2.581c0,19.879,16.12,35.999,35.999,35.999h35
		c-19.88,0-36-16.12-36-35.999V386.778"/>
	<path style="fill:#F24125;" d="M308.897,203.248l-14.69,157.82c-0.93,9.97-5.18,18.899-11.61,25.71H148.759
		c-6.431-6.811-10.681-15.74-11.611-25.71l-14.69-157.82h61.22h37.329h26.671L308.897,203.248"/>
	<path style="fill:#9E3B2B;" d="M159.458,203.248h-37l14.69,157.82c0.93,9.97,5.18,18.899,11.611,25.71h37
		c-6.431-6.811-10.681-15.74-11.611-25.71L159.458,203.248"/>
	<path style="fill:#4CC18E;" d="M263.058,104.208c49.67-40.4,115.29-40.4,115.29-40.4c-104,34.67-130.67,138.67-130.67,138.67v0.77
		h-26.67v-0.77c-1.23-9.16-3.04-17.72-5.34-25.71h0.01c4.31-15.02,10.35-28.05,17.6-39.34
		C241.828,124.078,252.048,113.148,263.058,104.208z"/>
	<path style="fill:#4CC18E;" d="M320.168,6.008c-33.05,30.62-49.37,66.52-57.12,98.18l0.01,0.02
		c-11.01,8.94-21.23,19.87-29.78,33.22c-7.25,11.29-13.29,24.32-17.6,39.34l1.33-27.08C219.488,52.388,318.598,6.718,320.168,6.008z
		"/>
	<path style="fill:#4CC18E;" d="M217.008,149.688l-1.33,27.08h-0.01c-8.88-30.98-25.13-53.46-44.03-69.77v-0.01
		c-7.47-32.33-23.75-69.44-57.79-100.98C115.428,6.718,214.528,52.388,217.008,149.688z"/>
	<path style="fill:#4CC18E;" d="M221.008,202.478v0.77h-37.33v-0.77c0,0-26.67-104-130.67-138.67c0,0,68.61,0,118.63,43.18v0.01
		c18.9,16.31,35.15,38.79,44.03,69.77C217.968,184.758,219.778,193.318,221.008,202.478z"/>
	<path style="fill:#FFFFFF;" d="M271.215,367.069c-0.186,0-0.374-0.009-0.563-0.026c-3.299-0.307-5.725-3.231-5.418-6.53
		l9.735-104.592c0.307-3.299,3.231-5.729,6.53-5.418c3.299,0.307,5.725,3.231,5.418,6.53l-9.735,104.592
		C276.893,364.735,274.278,367.069,271.215,367.069z"/>
	<path style="fill:#FFFFFF;" d="M283.091,239.397c-0.39,0-0.78-0.04-1.17-0.12c-0.38-0.08-0.76-0.19-1.12-0.34
		c-0.37-0.15-0.71-0.34-1.04-0.55c-0.33-0.22-0.64-0.47-0.91-0.75c-0.28-0.28-0.53-0.58-0.75-0.91c-0.21-0.33-0.4-0.67-0.55-1.04
		c-0.15-0.36-0.26-0.74-0.34-1.12c-0.08-0.39-0.12-0.78-0.12-1.17s0.04-0.79,0.12-1.17c0.08-0.39,0.19-0.76,0.34-1.13
		c0.15-0.36,0.34-0.71,0.55-1.03c0.22-0.33,0.47-0.64,0.75-0.91c0.27-0.28,0.58-0.53,0.91-0.75c0.33-0.22,0.67-0.4,1.04-0.55
		c0.36-0.15,0.74-0.27,1.12-0.34c0.77-0.16,1.57-0.16,2.34,0c0.39,0.07,0.76,0.19,1.13,0.34c0.36,0.15,0.71,0.33,1.03,0.55
		c0.33,0.22,0.64,0.47,0.91,0.75c0.28,0.27,0.53,0.58,0.75,0.91c0.22,0.32,0.4,0.67,0.55,1.03c0.15,0.37,0.27,0.74,0.34,1.13
		c0.08,0.38,0.12,0.78,0.12,1.17s-0.04,0.78-0.12,1.17c-0.07,0.38-0.19,0.76-0.34,1.12s-0.33,0.71-0.55,1.04
		c-0.22,0.33-0.47,0.63-0.75,0.91c-0.27,0.28-0.58,0.53-0.91,0.75c-0.32,0.21-0.67,0.4-1.03,0.55c-0.37,0.15-0.74,0.26-1.13,0.34
		C283.881,239.357,283.481,239.397,283.091,239.397z"/>
	<path style="fill:#333333;" d="M384.271,62.847c-0.471-2.905-2.979-5.039-5.922-5.039c-2.511,0-56.75,0.393-104.683,31.315
		c10.197-30.508,27.078-56.875,50.377-78.524c1.371-1.147,2.14-2.843,2.14-4.593c0-0.885-0.196-1.784-0.61-2.633
		c-1.431-2.934-4.948-4.172-7.9-2.821c-1.392,0.632-26.87,12.381-52.842,36.694c-23.556,22.051-39.714,47.366-47.823,74.567
		c-8.108-27.2-24.261-52.516-47.815-74.566c-24.788-23.204-49.614-35.183-52.59-36.575c-2.308-1.201-5.219-0.787-7.105,1.193
		c-2.285,2.399-2.188,6.202,0.212,8.487l0.06,0.057c23.996,22.233,41.217,49.413,51.35,80.967
		C112.42,58.23,55.635,57.808,53.008,57.808c-2.943,0-5.451,2.134-5.922,5.039c-0.472,2.904,1.233,5.722,4.025,6.653
		c51.907,17.304,83.556,52.812,100.966,79.551c13.189,20.257,20.454,38.704,23.692,48.197h-53.311c-1.688,0-3.298,0.711-4.435,1.959
		s-1.696,2.917-1.539,4.597l14.69,157.821c0.629,6.736,2.659,13.268,5.879,19.152h-33.885c-3.313,0-6,2.687-6,6v2.58
		c0,23.159,18.841,42,42,42h153.02c23.159,0,42-18.841,42-42v-2.58c0-3.313-2.687-6-6-6h-33.885
		c3.22-5.884,5.251-12.417,5.879-19.154l14.69-157.82c0.157-1.681-0.402-3.35-1.539-4.597c-1.137-1.248-2.747-1.959-4.435-1.959
		h-53.319c3.205-9.416,10.383-27.659,23.468-47.84c17.423-26.872,49.123-62.548,101.198-79.909
		C383.038,68.569,384.742,65.751,384.271,62.847z M288.661,32.86c-14.219,20.127-24.577,42.885-30.958,68.02
		c-11.569,9.658-21.492,20.844-29.473,33.306c-1.682,2.619-3.27,5.318-4.793,8.069C227.72,89.844,261.647,53.66,288.661,32.86z
		 M145.313,32.787c27.992,21.515,63.438,59.568,65.615,115.194c-8.412-16.878-19.751-31.673-33.896-44.207
		C170.718,77.453,160.099,53.696,145.313,32.787z M162.377,142.88c-13.847-21.357-36.226-47.97-69.902-67.729
		c22.658,5.258,51.275,15.689,75.243,36.379l0.001,0.011c20.288,17.507,34.48,40.009,42.184,66.887
		c1.734,6.023,3.151,12.334,4.242,18.821h-25.737C185.803,188.833,178.217,167.31,162.377,142.88z M292.188,419.358h-153.02
		c-15.386,0-28.104-11.642-29.806-26.58h212.632C320.292,407.716,307.574,419.358,292.188,419.358z M302.314,209.248l-14.08,151.262
		c-0.704,7.551-3.582,14.506-8.346,20.268h-128.42c-4.764-5.762-7.642-12.716-8.346-20.266l-14.08-151.264L302.314,209.248
		L302.314,209.248z M268.979,142.88c-15.84,24.43-23.426,45.953-26.03,54.368h-16.664c-1.106-7.005-2.556-13.843-4.364-20.383
		c3.923-13.151,9.427-25.328,16.41-36.201c7.658-11.957,17.25-22.655,28.514-31.801c23.208-18.877,50.3-28.632,71.968-33.672
		C305.173,94.947,282.817,121.537,268.979,142.88z"/>
</g>
</svg>
